<svg xmlns="http://www.w3.org/2000/svg" width="38" height="37" viewBox="0 0 38 37">
  <defs>
    <linearGradient id="oi-logos-laranja-a" x1="6.602%" x2="84.995%" y1="92.003%" y2="9.762%">
      <stop offset="0%" stop-color="#FF0"/>
      <stop offset="2.587%" stop-color="#FFF300"/>
      <stop offset="13.9%" stop-color="#FFC300"/>
      <stop offset="24.65%" stop-color="#FF9D00"/>
      <stop offset="34.55%" stop-color="#FF8200"/>
      <stop offset="43.31%" stop-color="#FF7200"/>
      <stop offset="50%" stop-color="#FF6C00"/>
      <stop offset="100%" stop-color="#E9278B"/>
    </linearGradient>
  </defs>
  <g fill="none">
    <path fill="url(#oi-logos-laranja-a)" d="M37.6598938,10.2974869 C34.8833685,2.9236705 22.4677208,-1.59459933 13.6730056,0.523565567 C8.62803058,1.7380765 4.74948243,4.02974295 2.10892105,8.7359728 C-1.3688915,14.9458828 -0.567420292,31.8116804 4.6779225,35.7877579 C8.47775473,38.6649921 11.1397841,32.8310021 22.4677208,33.763573 C34.7474047,34.7756655 31.6560157,24.8860765 33.0729023,20.9750621 C35.369976,14.6205674 39.1554963,14.2735643 37.6598938,10.2974869 Z"/>
    <path fill="#FFF" d="M22.438027,14.9273947 C23.2910666,14.9273947 23.979233,14.2341469 23.979233,13.3748085 C23.979233,12.5226914 23.2910666,11.8222222 22.438027,11.8222222 C21.5921558,11.8222222 20.9039894,12.51547 20.9039894,13.3748085 C20.896821,14.2341469 21.5849874,14.9273947 22.438027,14.9273947 Z M22.4595322,16.0755864 C21.5921558,16.0755864 20.8896526,18.1481086 20.8896526,20.7044599 C20.8896526,23.2608112 21.5921558,25.3333333 22.4595322,25.3333333 C23.3269086,25.3333333 24.0294118,23.2608112 24.0294118,20.7044599 C24.0222434,18.1481086 23.3197402,16.0755864 22.4595322,16.0755864 Z M15.4703422,16.0683651 C12.8897182,16.0683651 11.1764706,18.1264446 11.1764706,20.6972386 C11.1764706,23.2752539 12.8897182,25.326112 15.4703422,25.326112 C18.0437978,25.326112 19.749877,23.2752539 19.749877,20.6972386 C19.749877,18.1264446 18.0366294,16.0683651 15.4703422,16.0683651 Z M15.4703422,23.1524912 C14.2875562,23.1524912 13.6352318,21.9320862 13.6352318,20.6900172 C13.6352318,19.4479482 14.2875562,18.2636499 15.4703422,18.2636499 C16.6459598,18.2636499 17.2982842,19.4551695 17.2982842,20.6900172 C17.2982842,21.9248649 16.6459598,23.1524912 15.4703422,23.1524912 Z"/>
  </g>
</svg>
